<svg width="256" height="256" viewBox="0 0 256 256" fill="none" xmlns="http://www.w3.org/2000/svg">
<rect width="256" height="256" fill="transparent"/>
<path d="M210.483 90.8994C207.759 89.9637 205.011 89.0969 202.243 88.2997C202.708 86.3978 203.136 84.5189 203.516 82.673C209.754 52.361 205.676 27.941 191.747 19.9008C178.392 12.1929 156.551 20.2301 134.493 39.4468C132.319 41.3441 130.193 43.296 128.118 45.3008C126.729 43.9677 125.315 42.6604 123.877 41.3798C100.759 20.8327 77.587 12.1729 63.673 20.2361C50.33 27.968 46.379 50.9245 51.995 79.6519C52.5537 82.497 53.1846 85.3275 53.887 88.1406C50.607 89.0735 47.442 90.0665 44.413 91.1236C17.309 100.583 0 115.407 0 130.784C0 146.665 18.582 162.595 46.812 172.254C49.1007 173.033 51.4084 173.756 53.733 174.421C52.978 177.451 52.3078 180.501 51.723 183.568C46.369 211.797 50.55 234.211 63.857 241.894C77.601 249.828 100.669 241.674 123.13 222.019C124.951 220.421 126.733 218.777 128.472 217.09C130.72 219.261 133.027 221.369 135.392 223.411C157.15 242.152 178.638 249.72 191.932 242.016C205.663 234.059 210.126 209.98 204.332 180.685C203.876 178.39 203.364 176.107 202.797 173.836C204.417 173.356 206.007 172.861 207.557 172.347C236.905 162.614 256 146.878 256 130.784C256 115.351 238.132 100.427 210.483 90.8994ZM204.118 161.956C202.718 162.42 201.282 162.867 199.818 163.302C196.578 153.035 192.206 142.118 186.855 130.837C191.961 119.826 196.165 109.048 199.314 98.8475C201.933 99.6063 204.474 100.406 206.924 101.25C230.614 109.414 245.064 121.484 245.064 130.784C245.064 140.69 229.458 153.55 204.118 161.956ZM193.604 182.811C196.166 195.765 196.531 207.477 194.834 216.633C193.31 224.86 190.244 230.345 186.452 232.542C178.385 237.217 161.132 231.141 142.525 215.112C140.325 213.214 138.179 211.254 136.088 209.236C143.302 201.339 150.511 192.159 157.547 181.963C169.923 180.863 181.615 179.066 192.218 176.612C192.729 178.667 193.191 180.734 193.604 182.811ZM87.276 231.734C79.394 234.52 73.116 234.6 69.321 232.41C61.246 227.748 57.889 209.751 62.468 185.61C63.0123 182.758 63.6356 179.921 64.337 177.103C74.823 179.425 86.43 181.095 98.835 182.102C105.919 192.079 113.336 201.249 120.811 209.279C119.222 210.818 117.596 212.318 115.934 213.776C106.001 222.467 96.048 228.633 87.276 231.734ZM50.35 161.895C37.867 157.624 27.558 152.073 20.492 146.016C14.142 140.573 10.937 135.169 10.937 130.784C10.937 121.453 24.834 109.55 48.013 101.461C50.826 100.48 53.77 99.5543 56.825 98.6854C60.029 109.116 64.231 120.022 69.302 131.05C64.165 142.242 59.903 153.322 56.668 163.876C54.5461 163.268 52.4395 162.607 50.35 161.895ZM62.728 77.5487C57.917 52.9366 61.112 34.3706 69.153 29.7108C77.717 24.7477 96.655 31.824 116.616 49.5661C117.918 50.7257 119.198 51.9088 120.457 53.1148C113.019 61.1099 105.67 70.2122 98.649 80.1304C86.609 81.2475 75.084 83.0414 64.488 85.4448C63.8352 82.8284 63.2483 80.1948 62.728 77.5487ZM173.155 104.845C170.652 100.517 168.057 96.2441 165.37 92.0286C173.538 93.0626 181.364 94.435 188.713 96.1127C186.507 103.192 183.757 110.593 180.52 118.18C178.154 113.686 175.698 109.24 173.155 104.845ZM128.123 60.9388C133.167 66.4094 138.219 72.5166 143.188 79.1434C133.108 78.6668 123.011 78.6648 112.931 79.1374C117.905 72.5717 123 66.4724 128.123 60.9388ZM82.802 104.92C80.2903 109.28 77.8807 113.698 75.575 118.171C72.391 110.611 69.666 103.176 67.441 95.9966C74.745 94.3609 82.534 93.0236 90.65 92.0085C87.9334 96.2499 85.3167 100.555 82.802 104.92ZM90.883 170.339C82.498 169.402 74.592 168.133 67.29 166.542C69.55 159.234 72.335 151.642 75.588 143.919C77.9028 148.395 80.3225 152.816 82.845 157.178C85.439 161.663 88.125 166.055 90.883 170.339ZM128.425 201.4C123.241 195.803 118.071 189.609 113.022 182.949C117.924 183.141 122.921 183.239 128 183.239C133.218 183.239 138.376 183.122 143.453 182.895C138.468 189.676 133.435 195.879 128.425 201.4ZM180.623 143.524C184.045 151.332 186.929 158.885 189.219 166.067C181.797 167.763 173.783 169.128 165.339 170.142C168.045 165.849 170.665 161.501 173.198 157.103C175.773 152.633 178.249 148.105 180.623 143.524ZM163.725 151.634C159.847 158.377 155.751 164.992 151.444 171.469C143.642 172.022 135.822 172.297 128 172.293C120.033 172.293 112.284 172.044 104.822 171.56C100.402 165.098 96.2282 158.471 92.309 151.694C88.4082 144.952 84.7656 138.064 81.387 131.045C84.757 124.025 88.3895 117.134 92.277 110.387L92.276 110.388C96.162 103.64 100.303 97.0412 104.689 90.6071C112.302 90.0305 120.109 89.7302 127.999 89.7302C135.925 89.7302 143.743 90.0335 151.354 90.6141C155.696 97.0385 159.81 103.614 163.689 110.329C167.589 117.061 171.27 123.919 174.725 130.89C171.306 137.933 167.637 144.852 163.725 151.634ZM186.285 29.3845C194.857 34.3336 198.191 54.291 192.805 80.4627C192.461 82.1324 192.075 83.8332 191.655 85.5579C181.033 83.1034 169.5 81.2786 157.425 80.1444C150.391 70.1172 143.102 61.0008 135.785 53.1088C137.703 51.2584 139.666 49.456 141.673 47.7032C160.573 31.2394 178.237 24.7387 186.285 29.3845ZM128 107.901C140.625 107.901 150.86 118.146 150.86 130.784C150.86 143.422 140.625 153.668 128 153.668C115.375 153.668 105.14 143.422 105.14 130.784C105.14 118.146 115.375 107.901 128 107.901Z" fill="#00D8FF"/>
</svg>
